<?xml version="1.0" ?><svg enable-background="new 45.6 168.9 504 504" id="Layer_1" version="1.1" viewBox="45.6 168.9 504 504" xml:space="preserve" xmlns="http://www.w3.org/2000/svg" xmlns:xlink="http://www.w3.org/1999/xlink"><g><path d="M420.9,320.5h-26.4c-48.4,0-88,39.6-88,88s39.6,88,88,88h26.4c48.4,0,88-39.6,88-88   S469.3,320.5,420.9,320.5z M420.9,461.4h-26.4c-29,0-52.8-23.8-52.8-52.8s23.8-52.8,52.8-52.8h26.4c29,0,52.8,23.8,52.8,52.8   S449.9,461.4,420.9,461.4z" fill="#1976D2"/><path d="M200.8,320.5h-26.4c-48.4,0-88,39.6-88,88s39.6,88,88,88h26.4c48.4,0,88-39.6,88-88   S249.2,320.5,200.8,320.5z M200.8,461.4h-26.4c-29,0-52.8-23.8-52.8-52.8s23.8-52.8,52.8-52.8h26.4c29,0,52.8,23.8,52.8,52.8   S229.9,461.4,200.8,461.4z" fill="#1976D2"/></g><path d="M376.9,390.9H218.4c-9.7,0-17.6,7.9-17.6,17.6c0,9.7,7.9,17.6,17.6,17.6h158.4c9.7,0,17.6-7.9,17.6-17.6  C394.5,398.9,386.5,390.9,376.9,390.9z" fill="#42A5F5"/></svg>